<?xml version="1.0" encoding="utf-8"?>
<!-- Generator: Adobe Illustrator 27.3.1, SVG Export Plug-In . SVG Version: 6.00 Build 0)  -->
<svg version="1.1" id="Livello_1" xmlns="http://www.w3.org/2000/svg" xmlns:xlink="http://www.w3.org/1999/xlink" x="0px" y="0px"
	 viewBox="0 0 768.8 472.5" style="enable-background:new 0 0 768.8 472.5;" xml:space="preserve">
<image style="overflow:visible;" width="1025" height="630" xlink:href="../../../../Downloads/sagra cuccia card.png"  transform="matrix(0.75 0 0 0.75 -2356.25 -1099.9149)">
</image>
<image style="overflow:visible;" width="1025" height="630" xlink:href="../../../../Downloads/sagra salsiccia.png"  transform="matrix(0.75 0 0 0.75 -1572.5 -1099.9149)">
</image>
<image style="overflow:visible;" width="1025" height="630" xlink:href="../../../../Downloads/stragusto card.png"  transform="matrix(0.75 0 0 0.75 -778.75 -1099.9149)">
</image>
<image style="overflow:visible;" width="1025" height="630" xlink:href="../../../../Downloads/sagra prodotti tipici card.png"  transform="matrix(0.75 0 0 0.75 5 -1099.9149)">
</image>
<image style="overflow:visible;" width="1025" height="630" xlink:href="../../../../Downloads/sagra nduja card.png"  transform="matrix(0.75 0 0 0.75 -2351.25 -1671.9742)">
</image>
<image style="overflow:visible;" width="1025" height="630" xlink:href="../../../../Downloads/peperoncino festival card.png"  transform="matrix(0.75 0 0 0.75 -1562.5 -1673.9756)">
</image>
<image style="overflow:visible;" width="1025" height="630" xlink:href="../../../../Downloads/festa gnocco fritto card.png"  transform="matrix(0.75 0 0 0.75 -773.75 -1672.8511)">
</image>
<image style="overflow:visible;" width="1025" height="630" xlink:href="../../../../Downloads/arcore bear fest card.png"  transform="matrix(0.75 0 0 0.75 15 -1671.9742)">
</image>
<image style="overflow:visible;" width="1025" height="630" xlink:href="../../../../Downloads/palio ticino card.png"  transform="matrix(0.75 0 0 0.75 -2359.2488 -572.9362)">
</image>
<image style="overflow:visible;" width="1025" height="630" xlink:href="../../../../Downloads/sagra su succo card.png"  transform="matrix(0.75 0 0 0.75 -1563.5006 -572.9362)">
</image>
<image style="overflow:visible;" width="1025" height="630" xlink:href="../../../../Downloads/sagra delle ciliegie.png"  transform="matrix(0.75 0 0 0.75 -781.7487 -572.9362)">
</image>
<image style="overflow:visible;" width="1025" height="630" xlink:href="../../../../Downloads/festa del cavallo card.png"  transform="matrix(0.75 0 0 0.75 15 -569.434)">
</image>
<image style="overflow:visible;" width="1025" height="630" xlink:href="../../../../Downloads/festa del limone card.png"  transform="matrix(0.75 0 0 0.75 -2366.25 -0.5426)">
</image>
<image style="overflow:visible;" width="1025" height="630" xlink:href="../../../../Downloads/sagra del pesce card.png"  transform="matrix(0.75 0 0 0.75 -1567.5 -11.7973)">
</image>
<image style="overflow:visible;" width="1025" height="630" xlink:href="../../../../Downloads/festa san giovanni card.png"  transform="matrix(0.75 0 0 0.75 -782.7494 1.682073e-05)">
</image>
<image style="overflow:visible;" width="1025" height="630" xlink:href="../../../../Downloads/sagra cinghiale card.png"  transform="matrix(0.75 0 0 0.75 0 -1.5432)">
</image>
</svg>
